<?xml version="1.0" encoding="UTF-8" standalone="no"?><!DOCTYPE svg PUBLIC "-//W3C//DTD SVG 1.1//EN" "http://www.w3.org/Graphics/SVG/1.1/DTD/svg11.dtd"><svg width="100%" height="100%" viewBox="0 0 2311 825" version="1.1" xmlns="http://www.w3.org/2000/svg" xmlns:xlink="http://www.w3.org/1999/xlink" xml:space="preserve" xmlns:serif="http://www.serif.com/" style="fill-rule:evenodd;clip-rule:evenodd;stroke-linecap:round;stroke-linejoin:round;stroke-miterlimit:1.5;"><rect id="画板1" x="0" y="0" width="2310.42" height="825" style="fill:none;"/><g><path d="M80.47,683.719c0,19.849 16.089,35.938 35.938,35.938l251.562,-0c19.849,-0 35.938,-16.089 35.938,-35.938l-0,-121.648l-323.438,-0l0,121.648Z" style="fill:#8c9eff;fill-rule:nonzero;"/><path d="M367.97,144.657l-251.562,-0c-19.849,-0 -35.938,16.088 -35.938,35.937l0,381.477l323.438,-0l-0,-381.477c-0,-19.849 -16.089,-35.937 -35.938,-35.937Z" style="fill:#e1f5ff;fill-rule:nonzero;"/><path d="M206.251,637.405c0,19.715 16.223,35.937 35.938,35.937c19.715,0 35.937,-16.222 35.937,-35.937c0,-19.715 -16.222,-35.938 -35.937,-35.938c-19.715,0 -35.938,16.223 -35.938,35.938Z" style="fill:#ffd600;fill-rule:nonzero;"/><path d="M296.095,202.818l-107.812,-0c-7.445,-0 -13.477,-6.033 -13.477,-13.477c0,-7.444 6.032,-13.476 13.477,-13.476l107.812,-0c7.444,-0 13.477,6.032 13.477,13.476c-0,7.444 -6.033,13.477 -13.477,13.477Z" style="fill:#313fa0;fill-rule:nonzero;"/></g><g><path d="M1904.47,678.857l-445.966,-0c-39.637,-0 -73.468,-28.829 -79.984,-68.166l-39.42,-367.132c-7.359,-44.451 22.48,-86.478 66.66,-93.892c4.397,-0.739 8.857,-1.108 13.33,-1.108l445.959,-0c39.637,-0 73.469,28.835 79.984,68.172l39.421,367.139c7.358,44.444 -22.481,86.478 -66.654,93.886c-4.404,0.738 -8.863,1.108 -13.33,1.108l-0,-0.007Z" style="fill:#1e2147;fill-rule:nonzero;"/><path d="M1458.51,638.07c-19.846,0.042 -36.793,-14.417 -39.999,-34.117l-39.107,-364.784c-2.299,-14.341 0.913,-26.069 8.753,-35.379c7.626,-9.212 19.008,-14.519 30.967,-14.438l445.938,-0c19.84,-0.07 36.794,14.369 39.992,34.075l39.107,364.84c2.3,14.334 -0.906,26.09 -8.752,35.386c-7.615,9.199 -18.978,14.5 -30.919,14.424l-445.98,0l-0,-0.007Z" style="fill:#2c2f53;fill-rule:nonzero;"/><path d="M1500.14,515.698l364.909,-0c22.397,-0 40.543,18.257 40.543,40.793c-0,22.522 -18.146,40.793 -40.543,40.793l-364.909,0c-22.382,0 -40.542,-18.271 -40.542,-40.793c0.007,-22.536 18.16,-40.793 40.542,-40.793Z" style="fill:#4c4f6e;fill-rule:nonzero;"/><path d="M1723.15,597.284l445.98,0c33.588,0 60.821,27.386 60.821,61.183c-0,33.797 -27.226,61.183 -60.821,61.183l-445.98,-0c-33.588,-0 -60.813,-27.386 -60.813,-61.183c-0,-33.797 27.225,-61.183 60.813,-61.183Z" style="fill:#999aac;fill-rule:nonzero;"/><path d="M1479.88,597.284l243.268,0c33.588,0 60.814,27.386 60.814,61.183c-0,33.797 -27.226,61.183 -60.814,61.183l-243.268,-0c-33.581,-0 -60.806,-27.386 -60.806,-61.183c-0,-33.797 27.225,-61.183 60.806,-61.183Z" style="fill:#cacad4;fill-rule:nonzero;"/><path d="M1540.7,515.698c-0,22.522 -18.153,40.793 -40.55,40.793c-22.382,-0 -40.542,-18.271 -40.542,-40.793c-0,-22.536 18.16,-40.801 40.542,-40.801c22.397,0 40.55,18.258 40.55,40.801Z" style="fill:#11cbe5;fill-rule:nonzero;"/><path d="M1662.33,515.698c-0,22.522 -18.16,40.793 -40.543,40.793c-22.396,-0 -40.549,-18.271 -40.549,-40.793c-0,-22.536 18.153,-40.801 40.549,-40.801c22.383,0 40.543,18.258 40.543,40.801Z" style="fill:#91edf8;fill-rule:nonzero;"/><path d="M1783.96,515.698c-0,22.522 -18.146,40.793 -40.536,40.793c-22.396,-0 -40.549,-18.271 -40.549,-40.793c0,-22.536 18.153,-40.801 40.549,-40.801c22.39,0 40.536,18.258 40.536,40.801Z" style="fill:#fdb8bf;fill-rule:nonzero;"/><path d="M1905.59,515.698c-0,22.522 -18.146,40.793 -40.543,40.793c-22.389,-0 -40.549,-18.271 -40.549,-40.793c0,-22.536 18.16,-40.801 40.549,-40.801c22.397,0 40.543,18.258 40.543,40.801Z" style="fill:#fa4659;fill-rule:nonzero;"/><path d="M1479.88,474.897c11.205,0 20.278,9.136 20.278,20.397c0,0.023 0,0.047 0,0.07c0,11.134 -9.144,20.303 -20.278,20.334c-11.128,-0.038 -20.264,-9.206 -20.264,-20.334c-0,-0.023 -0,-0.047 -0,-0.07c-0.035,-11.152 9.112,-20.358 20.264,-20.397Z" style="fill:#bcf4f5;fill-rule:nonzero;"/><path d="M1723.15,474.897c11.198,0 20.278,9.136 20.278,20.397c0,0.023 0,0.047 0,0.07c0,11.134 -9.144,20.303 -20.278,20.334c-11.131,-0.035 -20.271,-9.203 -20.271,-20.334c-0,-0.023 -0,-0.047 0,-0.07c-0,-0.021 -0,-0.042 -0,-0.063c-0,-11.134 9.144,-20.303 20.278,-20.334l-0.007,0Zm121.634,0c11.192,0 20.271,9.136 20.271,20.397c0,0.023 0.001,0.047 0.001,0.07c-0,11.134 -9.145,20.303 -20.279,20.334c-11.131,-0.035 -20.271,-9.203 -20.271,-20.334c-0,-0.023 0,-0.047 0,-0.07c0,-0.021 -0,-0.042 -0,-0.063c-0,-11.134 9.144,-20.303 20.278,-20.334Z" style="fill:#fedee1;fill-rule:nonzero;"/><path d="M1601.51,474.897c11.198,0 20.278,9.136 20.278,20.397c0,0.023 0,0.047 0,0.07c0,11.134 -9.144,20.303 -20.278,20.334c-11.131,-0.035 -20.271,-9.203 -20.271,-20.334c-0,-0.023 -0,-0.047 -0,-0.07c-0,-0.021 -0,-0.042 -0,-0.063c-0,-11.134 9.144,-20.303 20.278,-20.334l-0.007,0Z" style="fill:#e9fff5;fill-rule:nonzero;"/><path d="M1479.88,638.07l40.549,0c11.199,0 20.272,9.129 20.272,20.397c-0,0.023 -0,0.046 -0,0.07c-0,11.132 -9.146,20.3 -20.279,20.327l-40.542,-0c-11.127,-0.035 -20.264,-9.2 -20.264,-20.327c-0,-0.024 -0,-0.047 -0,-0.07c-0.035,-11.152 9.112,-20.359 20.264,-20.397Z" style="fill:#7c7f95;fill-rule:nonzero;"/><path d="M1601.51,638.07l40.549,0c11.192,0 20.272,9.129 20.272,20.397c-0,0.021 -0,0.042 -0,0.063c-0,11.134 -9.145,20.303 -20.278,20.334l-40.543,-0c-11.131,-0.035 -20.271,-9.203 -20.271,-20.334c-0,-0.021 -0,-0.042 -0,-0.063c-0,-0.021 -0,-0.042 -0,-0.063c-0,-11.134 9.144,-20.303 20.278,-20.334l-0.007,0Z" style="fill:#4c4f6e;fill-rule:nonzero;"/><path d="M1925.87,597.284l121.634,0c11.198,0 20.278,9.129 20.278,20.397c0,0.018 0,0.037 0,0.055c0,11.134 -9.144,20.304 -20.278,20.334l-121.634,0c-11.152,-0.034 -20.302,-9.237 -20.271,-20.389c-0,-0.021 -0,-0.042 -0,-0.063c-0,-11.134 9.144,-20.303 20.278,-20.334l-0.007,0Z" style="fill:#2c2f53;fill-rule:nonzero;"/><path d="M1804.23,678.857l364.895,-0c11.198,-0 20.278,9.135 20.278,20.403c0,0.021 0,0.042 0,0.063c0,11.134 -9.144,20.303 -20.278,20.334l-364.895,-0c-11.152,-0.038 -20.299,-9.245 -20.264,-20.397c-0,-0.021 -0,-0.042 -0,-0.063c-0,-11.133 9.144,-20.303 20.278,-20.333l-0.014,-0.007Z" style="fill:#7c7f95;fill-rule:nonzero;"/></g><g><path d="M810.811,199.637l-37.324,-81.365c-1.418,-3.087 -0.044,-6.793 3.042,-8.212c0.893,-0.4 1.866,-0.586 2.844,-0.544l204.532,6.75c1.6,0.054 3.118,0.725 4.234,1.873l-177.328,81.498Z" style="fill:#0942f0;fill-rule:nonzero;"/><path d="M812.458,204.461l176.988,-81.294c-0.056,1.297 -0.518,2.545 -1.321,3.565l-128.197,159.59c-1.664,2.079 -4.49,2.864 -6.987,1.939c-0.626,-0.232 -1.209,-0.563 -1.729,-0.981c-0.745,-0.605 -1.342,-1.373 -1.744,-2.244l-37.01,-80.575Z" style="fill:#47baff;fill-rule:nonzero;"/></g><g><path d="M462.777,353.117c0,0 42.942,-98.933 256.674,-128.914" style="fill:none;stroke:#000;stroke-width:20.83px;stroke-dasharray:41.67,62.5,0,0;"/><path d="M1251.15,342.15c-0,0 -45.098,-84.847 -261.7,-117.947" style="fill:none;stroke:#000;stroke-width:20.83px;stroke-dasharray:41.67,62.5,0,0;"/></g></svg>